<?xml version="1.0" standalone="no"?>
<!DOCTYPE svg PUBLIC "-//W3C//DTD SVG 20010904//EN"
 "http://www.w3.org/TR/2001/REC-SVG-20010904/DTD/svg10.dtd">
<svg version="1.0" xmlns="http://www.w3.org/2000/svg"
 width="48.000000pt" height="50.000000pt" viewBox="0 0 48.000000 50.000000"
 preserveAspectRatio="xMidYMid meet">
<metadata>
Created by potrace 1.13, written by Peter Selinger 2001-2015
</metadata>
<g transform="translate(0.000000,50.000000) scale(0.100000,-0.100000)"
fill="#000000" stroke="none">
<path d="M220 430 c0 -15 -7 -20 -28 -20 -60 0 -100 -86 -68 -148 22 -42 44
-52 116 -52 58 0 61 -1 58 -22 -3 -21 -10 -24 -69 -28 -69 -5 -93 -17 -102
-50 -5 -18 0 -20 44 -20 42 0 49 -3 49 -20 0 -15 7 -20 25 -20 18 0 25 5 25
20 0 15 7 20 28 20 60 0 100 86 68 148 -22 42 -44 52 -116 52 -58 0 -61 1 -58
23 3 20 10 23 71 27 53 4 72 10 83 24 25 35 17 46 -31 46 -38 0 -45 3 -45 20
0 15 -7 20 -25 20 -18 0 -25 -5 -25 -20z"/>
</g>
</svg>
