<?xml version="1.0" standalone="no"?>
<!DOCTYPE svg PUBLIC "-//W3C//DTD SVG 20010904//EN"
 "http://www.w3.org/TR/2001/REC-SVG-20010904/DTD/svg10.dtd">
<svg version="1.0" xmlns="http://www.w3.org/2000/svg"
 width="48.000000pt" height="50.000000pt" viewBox="0 0 48.000000 50.000000"
 preserveAspectRatio="xMidYMid meet">
<metadata>
Created by potrace 1.13, written by Peter Selinger 2001-2015
</metadata>
<g transform="translate(0.000000,50.000000) scale(0.100000,-0.100000)"
fill="#000000" stroke="none">
<path d="M200 390 l-34 -70 -58 0 -58 0 0 -120 0 -120 149 0 150 0 46 85 c35
64 45 92 41 111 -7 27 -40 44 -87 44 -28 0 -29 1 -29 50 0 56 -24 90 -63 90
-19 0 -30 -13 -57 -70z m84 14 c3 -9 6 -40 6 -70 l0 -54 55 0 c68 0 71 -12 20
-99 l-36 -61 -84 0 -85 0 0 80 c0 66 3 81 18 89 10 5 31 37 47 70 29 61 47 75
59 45z"/>
</g>
</svg>
